<svg width="159" height="146" viewBox="0 0 159 146" fill="none" xmlns="http://www.w3.org/2000/svg">
<g clip-path="url(#clip0_226_581)">
<path d="M44.5665 34.0532C39.1178 33.8803 33.9795 35.1599 28.9791 37.1657C28.4848 37.3617 28.002 37.6153 27.4963 37.7652C25.9674 38.2263 24.588 38.0303 23.9328 36.3933C23.312 34.8371 23.9328 33.5921 25.3927 32.8312C29.8757 30.5142 34.6922 29.2346 39.6581 28.7504C47.7621 27.9665 55.6247 29.0616 63.0391 32.5892C64.6484 33.35 65.9243 33.2578 67.5451 32.5776C83.7877 25.7186 99.1106 27.3901 113.33 37.915C114.962 39.1254 115.859 39.2061 117.296 37.7306C122.262 32.6353 127.308 27.6207 132.435 22.6868C133.941 21.2342 133.722 20.289 132.366 18.9863C129.423 16.1505 126.572 13.2109 123.676 10.3174C122.641 9.27988 121.687 8.21932 122.285 6.58237C122.825 5.10681 124.112 4.76097 125.469 4.55347C135.297 3.05485 145.125 1.53318 154.954 0.0576151C157.782 -0.368915 159.31 1.04901 158.897 3.85027C157.414 13.8795 155.816 23.8972 154.287 33.9264C154.08 35.2521 153.597 36.3472 152.218 36.7507C150.85 37.1542 149.815 36.4971 148.896 35.5749C145.942 32.6122 142.918 29.7187 140.056 26.6754C138.596 25.1191 137.619 25.2113 136.171 26.71C131.285 31.7592 126.308 36.7277 121.273 41.627C119.871 42.9988 119.641 43.921 120.986 45.5926C125.009 50.5726 127.722 56.2558 129.228 62.4924C129.389 63.184 129.584 63.8988 129.538 64.5904C129.458 65.9738 128.699 66.9421 127.297 67.2072C125.986 67.4609 125.009 66.8614 124.515 65.674C124.112 64.6942 123.86 63.6451 123.572 62.6192C117.71 41.2581 94.9839 29.0271 73.9824 35.9553C73.1087 36.2435 71.7638 36.2089 71.6029 37.3156C71.465 38.2263 72.6489 38.6413 73.2812 39.2061C94.2252 57.7659 94.0183 89.041 72.7294 107.22C70.5224 109.111 71.8443 109.376 73.4881 109.964C94.0643 117.25 117.583 104.984 123.411 83.9111C123.653 83.058 123.848 82.1819 124.089 81.3288C124.595 79.5305 125.722 78.4699 127.63 79.0002C129.412 79.4959 129.78 80.9599 129.412 82.6315C128.297 87.7268 126.342 92.4878 123.584 96.9029C111.882 115.613 87.5926 122.818 67.6371 113.48C66.0853 112.754 64.7518 112.489 63.1195 113.319C58.8778 115.486 54.3028 116.592 49.6128 117.227C47.7966 117.469 47.0264 118.229 47.0724 120.166C47.2448 127.625 46.2332 126.299 53.2452 126.437C54.935 126.472 56.6248 126.426 58.3146 126.472C60.0273 126.518 61.3033 127.256 61.3723 129.123C61.4527 131.025 60.1308 131.855 58.4755 131.924C55.5443 132.051 52.613 132.074 49.6818 131.982C47.6816 131.913 47.0034 132.72 47.0839 134.657C47.1873 137.412 47.1299 140.178 47.0839 142.934C47.0609 144.617 46.4861 145.908 44.4975 145.965C42.4054 146.023 41.6467 144.778 41.6122 142.934C41.5547 140.086 41.5317 137.227 41.5892 134.38C41.6237 132.697 40.957 131.936 39.2327 131.982C36.6578 132.051 34.0829 131.982 31.508 131.982C29.5194 131.982 27.4503 131.705 27.4043 129.25C27.3583 126.783 29.37 126.414 31.3931 126.426C33.968 126.426 36.5544 126.357 39.1178 126.449C40.9915 126.518 41.5547 125.688 41.6122 123.901C41.8076 117.768 41.8651 117.745 35.9221 116.65C33.7266 116.247 31.5885 115.67 29.4849 114.956C27.5882 114.31 26.5881 113.042 27.3008 111.082C28.002 109.169 29.6113 109.169 31.3126 109.756C39.7385 112.685 48.1989 112.788 56.6823 109.976C59.4296 109.065 59.4526 108.811 57.2455 106.828C36.1406 88.0265 36.3934 57.0051 57.8318 38.6759C59.4641 37.281 59.1537 36.6815 57.3605 36.1858C55.1304 35.5749 52.9234 34.8717 50.6588 34.4682C48.6587 34.1224 46.5896 34.1339 44.555 33.9956L44.5665 34.0532ZM83.2934 73.4553C83.052 59.9562 77.7068 49.5235 67.3842 41.5578C65.7289 40.2782 64.6139 40.4166 62.9931 41.6155C42.049 57.0743 41.9111 88.6144 62.7057 104.246C64.6254 105.687 66.0163 105.653 67.8555 104.2C77.9252 96.2343 83.0405 85.8708 83.2934 73.4669V73.4553ZM152.724 7.64293C153.126 6.05209 152.103 6.14431 150.884 6.34028C144.838 7.27404 138.792 8.17321 132.745 9.09544C132.251 9.17613 131.538 9.00321 131.366 9.63724C131.17 10.352 131.883 10.6863 132.308 11.1128C137.447 16.2773 142.597 21.4302 147.746 26.5832C148.183 27.0212 148.585 27.7244 149.229 27.5746C150.091 27.3786 149.942 26.4102 150.034 25.7762C150.953 19.8048 151.827 13.8218 152.735 7.66598L152.724 7.64293Z" fill="black"/>
<path d="M11.2652 45.2007C13.4953 45.2122 14.5643 47.2757 13.3688 49.3968C12.2768 51.322 10.8859 53.0973 9.92029 55.0916C2.80483 69.7204 4.12676 83.646 13.5757 96.8338C14.7942 98.5284 16.7484 100.165 14.5413 102.367C13.0929 103.808 11.4261 103.07 9.1731 100.188C-2.64384 85.087 -3.09215 62.7691 8.11556 47.3449C8.90872 46.2497 9.71337 45.1661 11.2767 45.2122L11.2652 45.2007Z" fill="black"/>
</g>
<defs>
<clipPath id="clip0_226_581">
<rect width="159" height="146" fill="white"/>
</clipPath>
</defs>
</svg>
